{"title":"On The Edge 2001 DVDRip XviD Dual EN/PT-BR","uid":5034163,"size":1163591680,"categoryP":"video","categoryS":"movies","magnet":"?xt=urn:btih:8b58071bf546f55d3ddc63dad97146b0452a6d31&amp;dn=On+The+Edge+2001+DVDRip+XviD+Dual+EN%2FPT-BR&amp;tr=udp%3A%2F%2Ftracker.openbittorrent.com%3A80&amp;tr=udp%3A%2F%2Fopen.demonii.com%3A1337&amp;tr=udp%3A%2F%2Ftracker.coppersurfer.tk%3A6969&amp;tr=udp%3A%2F%2Fexodus.desync.com%3A6969","seeders":5,"leechers":1,"uploader":"mimako","files":1,"time":1249039526,"description":"General\nComplete name                    : On.The.Edge.(2001).DVDRip.XviD.AC3.dual-eDonkers.avi\nFormat                           : AVI\nFormat/Info                      : Audio Video Interleave\nFile size                        : 1.08 GiB\nDuration                         : 1h 25mn\nOverall bit rate                 : 1 816 Kbps\nWriting application              : VirtualDubMod 1.5.10.2 (build 2540/release)\nWriting library                  : VirtualDubMod build 2540/release\n\nVideo\nFormat                           : MPEG-4 Visual\nFormat profile                   : Streaming Video@L1\nFormat settings, BVOP            : Yes\nFormat settings, QPel            : No\nFormat settings, GMC             : No warppoints\nFormat settings, Matrix          : Default (H.263)\nCodec ID                         : XVID\nCodec ID/Hint                    : XviD\nDuration                         : 1h 25mn\nBit rate                         : 1 354 Kbps\nWidth                            : 608 pixels\nHeight                           : 464 pixels\nDisplay aspect ratio             : 4/3\nFrame rate                       : 23.976 fps\nResolution                       : 24 bits\nColorimetry                      : 4:2:0\nScan type                        : Progressive\nBits/(Pixel*Frame)               : 0.200\nStream size                      : 827 MiB (75%)\nWriting library                  : XviD 1.2.0.dev47 (UTC 2006-11-01)\n\nAudio #1\nFormat                           : AC-3\nFormat/Info                      : Audio Coding 3\nCodec ID                         : 2000\nDuration                         : 1h 25mn\nBit rate mode                    : Constant\nBit rate                         : 224 Kbps\nChannel(s)                       : 2 channels\nChannel positions                : L R\nSampling rate                    : 48.0 KHz\nStream size                      : 137 MiB (12%)\nAlignment                        : Split accross interleaves\nInterleave, duration             : 42 ms (1.00 video frame)\nInterleave, preload duration     : 500 ms\n\nAudio #2\nFormat                           : AC-3\nFormat/Info                      : Audio Coding 3\nCodec ID                         : 2000\nDuration                         : 1h 25mn\nBit rate mode                    : Constant\nBit rate                         : 224 Kbps\nChannel(s)                       : 2 channels\nChannel positions                : L R\nSampling rate                    : 48.0 KHz\nStream size                      : 137 MiB (12%)\nAlignment                        : Split accross interleaves\nInterleave, duration             : 42 ms (1.00 video frame)\nInterleave, preload duration     : 500 ms\n\n","torrent":{"xt":"urn:btih:8b58071bf546f55d3ddc63dad97146b0452a6d31","amp;dn":"On+The+Edge+2001+DVDRip+XviD+Dual+EN%2FPT-BR","amp;tr":["udp%3A%2F%2Ftracker.openbittorrent.com%3A80","udp%3A%2F%2Fopen.demonii.com%3A1337","udp%3A%2F%2Ftracker.coppersurfer.tk%3A6969","udp%3A%2F%2Fexodus.desync.com%3A6969"],"infoHash":"8b58071bf546f55d3ddc63dad97146b0452a6d31","infoHashBuffer":{"type":"Buffer","data":[139,88,7,27,245,70,245,93,61,220,99,218,217,113,70,176,69,42,109,49]},"announce":[],"urlList":[]}}